HIERARCHY
ROOT Hips
{
  OFFSET 0 0 0
  CHANNELS 6 Xposition Yposition Zposition Zrotation Yrotation Xrotation
  JOINT LeftThigh
  {
    OFFSET 8.409438 0 -5.917753
    CHANNELS 3 Zrotation Yrotation Xrotation
    JOINT LeftLeg
    {
      OFFSET 0 0 -42.358652
      CHANNELS 3 Zrotation Yrotation Xrotation
      JOINT LeftFoot
      {
        OFFSET 0 0 -39.357303
        CHANNELS 3 Zrotation Yrotation Xrotation
      }
    }
  }
  JOINT RightThigh
  {
    OFFSET -8.409438 0 -5.917753
    CHANNELS 3 Zrotation Yrotation Xrotation
    JOINT RightLeg
    {
      OFFSET 0 0 -42.358652
      CHANNELS 3 Zrotation Yrotation Xrotation
      JOINT RightFoot
      {
        OFFSET 0 0 -39.357303
        CHANNELS 3 Zrotation Yrotation Xrotation
      }
    }
  }
  JOINT SpineLow
  {
    OFFSET 0 0 4.719101
    CHANNELS 3 Zrotation Yrotation Xrotation
    JOINT SpineMid
    {
      OFFSET 0 0 12.899191
      CHANNELS 3 Zrotation Yrotation Xrotation
      JOINT Chest
      {
        OFFSET 0 0 12.899191
        CHANNELS 3 Zrotation Yrotation Xrotation
        JOINT LeftShoulder
        {
          OFFSET 7.550562 1.41573 9.438202
          CHANNELS 3 Zrotation Yrotation Xrotation
          JOINT LeftArm
          {
            OFFSET 9.155056 0 4.247191
            CHANNELS 3 Zrotation Yrotation Xrotation
            JOINT LeftForearm
            {
              OFFSET 0 0 25.771955
              CHANNELS 3 Zrotation Yrotation Xrotation
              JOINT LeftHand
              {
                OFFSET 0 0 25.197169
                CHANNELS 3 Zrotation Yrotation Xrotation
              }
            }
          }
        }
        JOINT RightShoulder
        {
          OFFSET -7.550562 1.41573 9.438202
          CHANNELS 3 Zrotation Yrotation Xrotation
          JOINT RightArm
          {
            OFFSET -9.155056 0 4.247191
            CHANNELS 3 Zrotation Yrotation Xrotation
            JOINT RightForearm
            {
              OFFSET 0 0 -25.771955
              CHANNELS 3 Zrotation Yrotation Xrotation
              JOINT RightHand
              {
                OFFSET 0 0 -25.197169
                CHANNELS 3 Zrotation Yrotation Xrotation
              }
            }
          }
        }
        JOINT Neck
        {
          OFFSET 0 0 15.101124
          CHANNELS 3 Zrotation Yrotation Xrotation
          JOINT Head
          {
            OFFSET 0 0 11.325843
            CHANNELS 3 Zrotation Yrotation Xrotation
            End Site
            {
              OFFSET 0 0 14.157303
            }
          }
        }
      }
    }
  }
}
MOTION
Frames: 5
Frame Time: 0.0
0.0  89.887642  0.0  -4.917377  16.682896  -126.102511  0.196381  -10.590406  12.271087  -11.241447  8.67128  32.343063  -9.363552  -0.909016  0.236962  -3.318561  30.075411  -75.734889  -30.717777  -4.181258  15.178172  -0.193976  -9.467218  -1.230285  -1.384623  -1.367347  4.253204  -4.014864  -3.479613  11.709738  -4.014864  -3.479613  11.709737  -12.099253  31.078579  19.024979  127.407241  44.086521  -158.065239  -24.089545  -1.034978  84.990065  66.69256  -0.949832  56.908997  -2.171515  12.476629  32.458658  14.581284  58.052097  -52.490477  -15.063761  -14.658592  -63.72845  82.971654  8.745631  -6.663764  -37.049375  -0.438155  4.63386  -27.785566  -0.612874  3.463957  
0.0  89.887642  0.0  -4.221818  15.81032  -126.710911  3.693361  -12.359734  13.645663  -12.621651  9.161407  31.524236  -10.28828  -0.826814  -0.027042  -1.456086  36.27049  -76.449929  -43.894851  -2.54128  13.042999  1.365347  -11.454535  0.810111  -0.938649  -1.296742  4.335893  -2.790591  -3.362743  11.909595  -2.790591  -3.362743  11.909595  -13.441366  30.801736  18.367289  127.104225  43.979002  -158.983462  -24.621832  -1.674035  84.578228  64.878168  -0.862806  57.129812  -3.708367  12.129207  30.744891  19.613686  57.071656  -46.198133  -14.824163  -14.216986  -65.322983  83.681604  7.650042  -7.589436  -38.47679  -0.801917  5.575352  -28.852829  -0.957898  4.150499  
0.0  89.887642  0.0  -2.80503  13.319105  -127.736731  8.061112  -15.409642  15.633512  -15.000996  10.858923  30.518577  -10.730386  -0.763956  -0.261731  1.988692  33.186477  -76.217021  -50.011242  1.72761  13.144133  3.472064  -9.7236  1.904031  -0.178102  -1.195619  4.629951  -0.713748  -3.22028  12.673522  -0.713748  -3.22028  12.673522  -15.368196  29.775855  16.987919  126.685559  43.813201  -159.809816  -25.071227  -1.098039  84.535212  64.258316  -0.696724  56.7116  -4.729144  11.542197  28.741504  23.44477  55.43183  -41.011195  -14.854224  -13.693596  -66.750186  84.61542  6.643023  -8.38499  -39.867969  -1.471388  6.362171  -29.888144  -1.527543  4.699048  
0.0  89.887642  0.0  -2.182067  12.968381  -127.745055  7.290883  -15.683095  15.22565  -15.349531  12.640996  31.430907  -10.037035  -0.661182  -0.08836  -0.363841  24.021028  -77.770096  -45.541909  5.389978  15.500762  4.836786  -9.228819  3.974027  0.189307  -1.018936  4.823869  0.312492  -2.810091  13.184821  0.312492  -2.810091  13.184821  -17.322689  28.090694  14.994423  126.413724  43.407407  -160.428577  -25.138855  -0.328258  84.727742  64.046245  -0.351631  56.290654  -5.301799  11.208555  26.181915  26.667922  53.328485  -37.083835  -15.231694  -13.004603  -67.882435  85.512006  5.507368  -8.708526  -40.845655  -2.36728  6.787654  -30.608454  -2.242487  4.957825  
0.0  89.887642  0.0  -1.960927  13.73711  -127.074738  3.142377  -12.183587  14.135508  -13.48128  12.363919  33.088818  -8.727377  -0.463735  0.36123  -4.466058  10.988292  -83.875622  -32.224578  10.767174  23.744356  5.687027  -9.213087  4.37545  0.13566  -0.858181  4.796301  0.199436  -2.361989  13.110496  0.199436  -2.361989  13.110496  -17.715193  26.934275  13.999352  126.349925  42.968467  -160.528278  -25.288088  0.119798  84.753448  64.023712  0.241072  57.083044  -5.781048  11.031286  24.367045  30.531019  52.259899  -33.645209  -15.70369  -12.179011  -68.756561  85.88659  4.321826  -8.596347  -40.917687  -2.510937  6.767818  -30.660394  -2.350323  4.932881  
